<svg width="170" height="72" viewBox="0 0 170 72" fill="none" xmlns="http://www.w3.org/2000/svg">
<path fill-rule="evenodd" clip-rule="evenodd" d="M56.0721 0V14.3463L35.631 34.7875L15.096 14.3463V0H28.8797L35.631 6.65744L42.2884 0H56.0721ZM52.1339 3.84444H46.1328V10.5019H52.1339V3.84444ZM42.2884 10.5019V5.53224L32.5367 15.1902L35.631 18.2845L42.2884 11.6271V10.5019ZM28.8797 5.53224V10.5019V11.7208L29.7236 12.5648L32.818 9.47045L28.8797 5.53224ZM25.0353 3.84444H19.0342V10.5019H25.0353V3.84444ZM25.0353 14.3463H20.6283L30.0987 23.723L32.818 21.0038L26.1605 14.3463H25.0353ZM35.5372 23.8168L32.818 26.536L35.631 29.4428L50.6336 14.4401H46.0391H44.9139L38.2564 21.0975L35.5372 23.8168ZM15.096 71.2628V56.8228L35.5372 36.3816L55.9784 56.8228V71.2628H42.1946L35.5372 64.6054L28.8797 71.2628H15.096ZM19.0342 67.3246H25.0353V60.6672H19.0342V67.3246ZM28.8797 60.761V65.7306L38.6315 56.0726L35.5372 52.9783L28.8797 59.6358V60.761ZM42.2884 65.7306V60.6672V59.542L41.4445 58.6981L38.3502 61.7924L42.2884 65.7306ZM46.2266 67.3246H52.2277V60.6672H46.2266V67.3246ZM46.1328 56.8228H50.5399L41.0694 47.4461L38.3502 50.1653L45.0076 56.8228H46.1328ZM35.631 47.4461L38.3502 44.6331L35.631 41.8201L20.6283 56.8228H25.1291H26.2543L32.9117 50.1653L35.631 47.4461ZM64.5113 35.6313L71.1688 28.9739V15.1902H56.8224L36.3813 35.6313L56.8224 56.0725H71.2625V42.2888L64.5113 35.6313ZM60.6669 19.0346H67.3243V25.0357H60.6669V19.0346ZM59.5417 28.8801H60.6669H65.7303L61.7921 32.8183L58.6978 29.724L59.5417 28.8801ZM56.8224 20.6287V25.0357V26.1609L50.165 32.8183L47.4458 30.0991L56.8224 20.6287ZM56.8224 46.1332V50.634L41.8197 35.6313L44.6327 32.8183L47.352 35.5376L50.0712 38.2568L56.7287 44.9143V46.1332H56.8224ZM52.8842 35.6313L55.9785 32.537L65.7303 42.2888H60.7606H59.6354L52.8842 35.6313ZM67.3243 52.2281H60.6669V46.227H67.3243V52.2281ZM0 15.0965H14.3463L34.7875 35.5376L14.3463 56.0726H0V42.2888L6.65744 35.6314L0 28.8802V15.0965ZM10.5019 19.0347H3.84444V25.0358H10.5019V19.0347ZM3.84444 52.2281H10.5019V46.227H3.84444V52.2281ZM10.5019 42.2888H11.6271L12.5648 41.4449L9.47045 38.3506L5.53224 42.2888H10.5019ZM10.5019 28.8802H5.53224L15.1902 38.6319L18.2845 35.5376L11.6271 28.8802H10.5019ZM14.3463 46.1333V50.5403L23.723 41.0699L21.0038 38.3506L14.3463 45.0081V46.1333ZM21.0975 32.9122L23.8168 35.6314L26.6298 38.4444L29.4428 35.6314L14.4401 20.6287V25.1295V26.2547L21.0975 32.9122Z" fill="url(#paint0_linear)"/>
<path d="M95.1507 23.4691H90.4313L89.4874 25.64H87.0333L91.5639 15.4462H93.9236L98.4542 25.64H96.0001L95.1507 23.4691ZM94.3956 21.6757L92.791 17.8059L91.1864 21.6757H94.3956Z" fill="black"/>
<path d="M102.701 17.4282V20.1655H107.421V22.0532H102.701V25.7343H100.342V15.5405H108.081V17.4282H102.701Z" fill="black"/>
<path d="M112.707 17.4282V20.1655H117.426V22.0532H112.707V25.7343H110.347V15.5405H118.087V17.4282H112.707Z" fill="black"/>
<path d="M120.447 15.5405H122.807V25.7343H120.447V15.5405Z" fill="black"/>
<path d="M125.921 15.5405H128.281V23.8466H133.378V25.7343H125.921V15.5405Z" fill="black"/>
<path d="M135.454 15.5405H137.814V25.7343H135.454V15.5405Z" fill="black"/>
<path d="M147.725 23.4691H143.005L142.062 25.64H139.607L144.138 15.4462H146.498L151.028 25.64H148.574L147.725 23.4691ZM146.97 21.6757L145.365 17.8059L143.76 21.6757H146.97Z" fill="black"/>
<path d="M154.426 17.4282H151.123V15.5405H159.995V17.4282H156.692V25.7343H154.332V17.4282H154.426Z" fill="black"/>
<path d="M170 23.8466V25.7343H162.071V15.5405H169.811V17.4282H164.431V19.5991H169.15V21.4869H164.431V23.8466H170Z" fill="black"/>
<path d="M97.3215 36.8721C97.6047 37.3441 97.7935 37.816 97.7935 38.4767C97.7935 39.3262 97.4159 40.0813 96.7552 40.5533C96.0945 41.0252 95.0562 41.3084 93.7348 41.3084H88.4491V31.1145H93.4516C94.6787 31.1145 95.6226 31.3977 96.2833 31.8696C96.944 32.3415 97.3215 33.0023 97.3215 33.8517C97.3215 34.3237 97.2271 34.7956 96.944 35.1732C96.6608 35.5507 96.3777 35.8339 95.9057 36.117C96.5664 36.2114 96.944 36.4946 97.3215 36.8721ZM90.8088 32.9079V35.2676H93.1685C93.7348 35.2676 94.2067 35.1732 94.4899 34.9844C94.7731 34.7956 94.9618 34.5125 94.9618 34.0405C94.9618 33.5686 94.7731 33.3798 94.4899 33.191C94.2067 33.0023 93.7348 32.9079 93.1685 32.9079H90.8088ZM94.9618 39.2318C95.245 39.0431 95.4338 38.6655 95.4338 38.288C95.4338 37.4385 94.7731 37.0609 93.546 37.0609H90.8088V39.6094H93.546C94.2067 39.515 94.6787 39.4206 94.9618 39.2318Z" fill="black"/>
<path d="M101.475 40.2701C100.625 39.4206 100.248 38.2879 100.248 36.7777V31.0201H102.607V36.6833C102.607 38.4767 103.362 39.4206 104.873 39.4206C105.628 39.4206 106.194 39.2318 106.572 38.7599C106.949 38.2879 107.138 37.6272 107.138 36.6833V31.0201H109.498V36.7777C109.498 38.2879 109.12 39.4206 108.271 40.2701C107.421 41.1196 106.288 41.4971 104.873 41.4971C103.362 41.4971 102.23 41.0252 101.475 40.2701Z" fill="black"/>
<path d="M113.556 41.1196C112.801 40.9308 112.235 40.6476 111.763 40.2701L112.518 38.4767C112.99 38.7599 113.462 39.0431 114.123 39.2318C114.689 39.4206 115.35 39.515 115.916 39.515C116.577 39.515 117.049 39.4206 117.426 39.2318C117.709 39.0431 117.898 38.7599 117.898 38.4767C117.898 38.1936 117.804 38.0048 117.615 37.9104C117.426 37.7216 117.143 37.6272 116.86 37.5329C116.577 37.4385 116.199 37.3441 115.633 37.2497C114.878 37.0609 114.217 36.8721 113.745 36.6834C113.273 36.4946 112.801 36.2114 112.424 35.8339C112.046 35.4563 111.857 34.89 111.857 34.2293C111.857 33.663 112.046 33.0966 112.329 32.6247C112.613 32.1528 113.179 31.7752 113.745 31.4921C114.406 31.2089 115.161 31.1145 116.105 31.1145C116.766 31.1145 117.426 31.2089 117.993 31.3033C118.653 31.4921 119.125 31.6808 119.597 31.964L118.842 33.7574C117.898 33.191 116.954 33.0023 116.011 33.0023C115.35 33.0023 114.878 33.0966 114.5 33.2854C114.217 33.4742 114.028 33.7574 114.028 34.1349C114.028 34.5125 114.217 34.7012 114.595 34.89C114.972 35.0788 115.539 35.2676 116.294 35.3619C117.049 35.5507 117.709 35.7395 118.181 35.9283C118.653 36.117 119.125 36.4002 119.503 36.7778C119.88 37.1553 120.069 37.7216 120.069 38.3823C120.069 38.9487 119.88 39.515 119.597 39.9869C119.314 40.4589 118.748 40.8364 118.087 41.1196C117.426 41.4027 116.671 41.4971 115.727 41.4971C115.067 41.4971 114.312 41.4027 113.556 41.1196Z" fill="black"/>
<path d="M122.523 31.1145H124.882V41.3084H122.523V31.1145Z" fill="black"/>
<path d="M137.437 31.1145V41.3084H135.454L130.357 35.0788V41.3084H127.998V31.1145H129.98L135.077 37.3441V31.1145H137.437Z" fill="black"/>
<path d="M148.48 39.4206V41.3084H140.551V31.1145H148.291V33.0023H142.911V35.1732H147.63V36.9665H142.911V39.4206H148.48Z" fill="black"/>
<path d="M152.066 41.1196C151.311 40.9308 150.745 40.6476 150.273 40.2701L151.028 38.4767C151.5 38.7599 151.972 39.0431 152.633 39.2318C153.199 39.4206 153.86 39.515 154.426 39.515C155.087 39.515 155.559 39.4206 155.936 39.2318C156.219 39.0431 156.408 38.7599 156.408 38.4767C156.408 38.1936 156.314 38.0048 156.125 37.9104C155.936 37.816 155.653 37.6272 155.37 37.5329C155.087 37.4385 154.709 37.3441 154.143 37.2497C153.388 37.0609 152.727 36.8721 152.255 36.6834C151.783 36.4946 151.311 36.2114 150.934 35.8339C150.556 35.4563 150.367 34.89 150.367 34.2293C150.367 33.663 150.556 33.0966 150.839 32.6247C151.123 32.1528 151.689 31.7752 152.255 31.4921C152.916 31.2089 153.671 31.1145 154.615 31.1145C155.276 31.1145 155.936 31.2089 156.503 31.3033C157.163 31.4921 157.635 31.6808 158.107 31.964L157.352 33.7574C156.408 33.191 155.464 33.0023 154.521 33.0023C153.86 33.0023 153.388 33.0966 153.01 33.2854C152.727 33.4742 152.538 33.7574 152.538 34.1349C152.538 34.5125 152.727 34.7012 153.105 34.89C153.482 35.0788 154.049 35.2676 154.804 35.3619C155.559 35.5507 156.219 35.7395 156.691 35.9283C157.163 36.117 157.635 36.4002 158.013 36.7778C158.39 37.1553 158.579 37.7216 158.579 38.3823C158.579 38.9487 158.39 39.515 158.107 39.9869C157.824 40.4589 157.258 40.8364 156.597 41.1196C155.936 41.4027 155.181 41.4971 154.237 41.4971C153.577 41.4971 152.822 41.4027 152.066 41.1196Z" fill="black"/>
<path d="M162.071 41.1196C161.316 40.9308 160.75 40.6476 160.278 40.2701L161.033 38.4767C161.505 38.7599 161.977 39.0431 162.637 39.2318C163.204 39.4206 163.864 39.515 164.431 39.515C165.091 39.515 165.563 39.4206 165.941 39.2318C166.224 39.0431 166.413 38.7599 166.413 38.4767C166.413 38.1936 166.319 38.0048 166.13 37.9104C165.941 37.7216 165.658 37.6272 165.375 37.5329C165.091 37.4385 164.714 37.3441 164.148 37.2497C163.392 37.0609 162.732 36.8721 162.26 36.6834C161.788 36.4946 161.316 36.2114 160.938 35.8339C160.561 35.4563 160.372 34.89 160.372 34.2293C160.372 33.663 160.561 33.0966 160.844 32.6247C161.127 32.1528 161.694 31.7752 162.26 31.4921C162.921 31.2089 163.676 31.1145 164.62 31.1145C165.28 31.1145 165.941 31.2089 166.507 31.3033C167.168 31.4921 167.64 31.6808 168.112 31.964L167.357 33.7574C166.413 33.191 165.469 33.0023 164.525 33.0023C163.864 33.0023 163.392 33.0966 163.015 33.2854C162.732 33.4742 162.543 33.7574 162.543 34.1349C162.543 34.5125 162.732 34.7012 163.109 34.89C163.487 35.0788 164.053 35.2676 164.808 35.3619C165.563 35.5507 166.224 35.7395 166.696 35.9283C167.168 36.117 167.64 36.4002 168.017 36.7778C168.395 37.1553 168.584 37.7216 168.584 38.3823C168.584 38.9487 168.395 39.515 168.112 39.9869C167.829 40.4589 167.262 40.8364 166.602 41.1196C165.941 41.4027 165.186 41.4971 164.242 41.4971C163.676 41.4971 162.826 41.4027 162.071 41.1196Z" fill="black"/>
<path d="M90.5256 55.089C89.6761 54.617 89.0154 54.0507 88.5434 53.2012C88.0715 52.4461 87.7883 51.5023 87.7883 50.464C87.7883 49.4257 88.0715 48.5762 88.5434 47.7267C89.0154 46.9716 89.6761 46.3109 90.5256 45.839C91.3751 45.3671 92.3189 45.1783 93.3572 45.1783C94.2067 45.1783 95.0562 45.3671 95.7169 45.6502C96.472 45.9334 97.0383 46.4053 97.5103 46.9716L96 48.3875C95.3393 47.6324 94.4898 47.1604 93.4516 47.1604C92.7909 47.1604 92.2245 47.2548 91.7526 47.538C91.2807 47.8211 90.9031 48.1987 90.62 48.6706C90.3368 49.1426 90.2424 49.7089 90.2424 50.3696C90.2424 51.0303 90.3368 51.5966 90.62 52.0686C90.9031 52.5405 91.2807 52.9181 91.7526 53.2012C92.2245 53.4844 92.7909 53.5788 93.4516 53.5788C94.4898 53.5788 95.3393 53.2012 96 52.3517L97.5103 53.7676C97.0383 54.3339 96.3776 54.8058 95.7169 55.089C94.9618 55.3721 94.2067 55.5609 93.3572 55.5609C92.3189 55.7497 91.3751 55.5609 90.5256 55.089Z" fill="black"/>
<path d="M99.8696 45.367H102.229V53.6731H107.326V55.5609H99.8696V45.367Z" fill="black"/>
<path d="M110.347 54.5226C109.498 53.6731 109.12 52.5404 109.12 51.0302V45.2726H111.48V50.9358C111.48 52.7292 112.235 53.6731 113.745 53.6731C114.5 53.6731 115.067 53.4843 115.444 53.0124C115.822 52.5404 116.011 51.8797 116.011 50.9358V45.2726H118.37V51.0302C118.37 52.5404 117.993 53.6731 117.143 54.5226C116.294 55.3721 115.161 55.7496 113.745 55.7496C112.33 55.7496 111.197 55.3721 110.347 54.5226Z" fill="black"/>
<path d="M130.357 51.219C130.64 51.691 130.829 52.1629 130.829 52.8236C130.829 53.6731 130.452 54.4282 129.791 54.9002C129.13 55.3721 128.092 55.6553 126.77 55.6553H121.485V45.367H126.487C127.714 45.367 128.658 45.6502 129.319 46.1221C129.98 46.594 130.357 47.2548 130.357 48.1042C130.357 48.5762 130.263 49.0481 129.98 49.4257C129.696 49.8032 129.413 50.0864 128.941 50.3695C129.508 50.4639 129.98 50.7471 130.357 51.219ZM123.844 47.1604V49.5201H126.204C126.77 49.5201 127.242 49.4257 127.526 49.2369C127.809 49.0481 127.997 48.765 127.997 48.293C127.997 47.8211 127.809 47.6323 127.526 47.4435C127.242 47.2548 126.77 47.1604 126.204 47.1604H123.844ZM127.997 53.4843C128.281 53.2956 128.469 52.918 128.469 52.5405C128.469 51.691 127.809 51.3134 126.582 51.3134H123.844V53.8619H126.582C127.148 53.7675 127.62 53.6731 127.997 53.4843Z" fill="black"/>
<path d="M133.095 55.2777C132.812 54.9946 132.717 54.7114 132.717 54.2395C132.717 53.8619 132.812 53.4844 133.095 53.2012C133.378 52.9181 133.661 52.8237 134.133 52.8237C134.511 52.8237 134.888 52.9181 135.171 53.2012C135.455 53.4844 135.549 53.7675 135.549 54.2395C135.549 54.617 135.455 54.9946 135.171 55.2777C134.888 55.5609 134.605 55.6553 134.133 55.6553C133.756 55.6553 133.378 55.5609 133.095 55.2777Z" fill="black"/>
<defs>
<linearGradient id="paint0_linear" x1="5.72111e-05" y1="0.000143757" x2="71.2627" y2="71.2627" gradientUnits="userSpaceOnUse">
<stop stop-color="#EA84CA"/>
<stop offset="0.440917" stop-color="#AE55CC"/>
<stop offset="1" stop-color="#6219CF"/>
</linearGradient>
</defs>
</svg>
